<?xml version="1.0" encoding="UTF-8"?>
<svg enable-background="new 0 0 24.00 24.00" version="1.1" viewBox="0 0 24 24" xml:space="preserve" xmlns="http://www.w3.org/2000/svg"><g><circle cx="12" cy="12" r="12" fill="#f9f9f9"/><g fill="#86c5f2"><path d="m13 11.519a2 2 0 0 1 0.82353 2.7059l-0.94117 1.7647-1.8824 3.5294a2 2 0 0 1-0.82354-2.7059l1.8824-3.5294z" stroke-width=".66667"/><path d="m11.011 10.527a1.9927 2 0 0 0-0.82051 2.7059l0.93773 1.7647 1.8754 3.5294a1.9927 2 0 0 0 0.82051-2.7059l-1.8754-3.5294z" stroke-width=".66544"/><path d="m9 10.5a4 4.5 0 0 0-4-4.5v4.5a4 4.5 0 0 0 4 4.5z" stroke-width="1.4142"/><path d="m15 10.5a4 4.5 0 0 1 4-4.5v4.5a4 4.5 0 0 1-4 4.5z" stroke-width="1.4142"/><circle cx="12.009" cy="9.0115" r="1"/></g></g></svg>
