<svg width="32" height="32" viewBox="0 0 32 32" fill="none" xmlns="http://www.w3.org/2000/svg">
<path fill-rule="evenodd" clip-rule="evenodd" d="M6 27.5H27V26.5H20.1256L19.5006 23.5H29.5V5.50001L3.5 5.5L3.5 23.5L13.4993 23.5L12.8743 26.5H6V27.5ZM18.9999 26H13.9999L14.4166 24H18.5833L18.9999 26ZM4.5 6.5L28.5 6.50001V19.5H4.5L4.5 6.5ZM4.5 20.5H28.5V22.5L4.5 22.5L4.5 20.5Z" fill="black" fill-opacity="0.8"/>
<path d="M16.5 8.5L17.4549 11.846L20.8301 11L18.4098 13.5L20.8301 16L17.4549 15.154L16.5 18.5L15.5451 15.154L12.1699 16L14.5902 13.5L12.1699 11L15.5451 11.846L16.5 8.5Z" fill="black" fill-opacity="0.8"/>
</svg>
