<svg width="32" height="32" viewBox="0 0 32 32" fill="none" xmlns="http://www.w3.org/2000/svg">
<path fill-rule="evenodd" clip-rule="evenodd" d="M16 28C22.6274 28 28 22.6274 28 16C28 9.37258 22.6274 4 16 4C9.37258 4 4 9.37258 4 16C4 22.6274 9.37258 28 16 28ZM15.5306 13.411L17.3591 11.5825C18.1187 10.8229 19.3502 10.8229 20.1098 11.5825C20.8694 12.3421 20.8694 13.5736 20.1098 14.3332L18.2813 16.1617L18.9884 16.8689L20.8169 15.0403C21.9671 13.8902 21.9671 12.0255 20.8169 10.8754C19.6668 9.72526 17.8021 9.72526 16.652 10.8754L14.8235 12.7039L15.5306 13.411ZM11.5824 20.1099C10.8227 19.3502 10.8226 18.119 11.5821 17.3595L13.5257 15.4159L12.8186 14.7088L10.875 16.6524C9.72481 17.8026 9.72528 19.667 10.8753 20.817C12.0254 21.9671 13.8902 21.9671 15.0403 20.817L16.9836 18.8737L16.2764 18.1666L14.3332 20.1099C13.5736 20.8695 12.342 20.8695 11.5824 20.1099ZM18.5084 13.8911L13.8911 18.5084L13.184 17.8013L17.8012 13.184L18.5084 13.8911Z" fill="black" fill-opacity="0.8"/>
</svg>
