<svg width="32" height="32" viewBox="0 0 32 32" fill="none" xmlns="http://www.w3.org/2000/svg">
<path fill-rule="evenodd" clip-rule="evenodd" d="M12 24H20C21.6569 24 23 22.6569 23 21C23 19.3431 21.6569 18 20 18L12 18C10.3431 18 9 19.3431 9 21C9 22.6569 10.3431 24 12 24ZM20 25C22.2091 25 24 23.2091 24 21C24 18.7909 22.2091 17 20 17L12 17C9.79086 17 8 18.7909 8 21C8 23.2091 9.79086 25 12 25L20 25Z" fill="#313131"/>
<path d="M20 17L12 17C9.79086 17 8 18.7909 8 21C8 23.2091 9.79086 25 12 25L20 25C17.7909 25 16 23.2091 16 21C16 18.7909 17.7909 17 20 17Z" fill="#313131"/>
<path fill-rule="evenodd" clip-rule="evenodd" d="M23 21C23 19.3431 21.6569 18 20 18C18.3431 18 17 19.3431 17 21C17 22.6569 18.3431 24 20 24C21.6569 24 23 22.6569 23 21ZM20 25C22.2091 25 24 23.2091 24 21C24 18.7909 22.2091 17 20 17C17.7909 17 16 18.7909 16 21C16 23.2091 17.7909 25 20 25Z" fill="#313131"/>
<path fill-rule="evenodd" clip-rule="evenodd" d="M20 8H12C10.3431 8 9 9.34315 9 11C9 12.6569 10.3431 14 12 14H20C21.6569 14 23 12.6569 23 11C23 9.34315 21.6569 8 20 8ZM12 7C9.79086 7 8 8.79086 8 11C8 13.2091 9.79086 15 12 15H20C22.2091 15 24 13.2091 24 11C24 8.79086 22.2091 7 20 7H12Z" fill="#313131"/>
<path fill-rule="evenodd" clip-rule="evenodd" d="M9 11C9 12.6569 10.3431 14 12 14C13.6569 14 15 12.6569 15 11C15 9.34315 13.6569 8 12 8C10.3431 8 9 9.34315 9 11ZM12 7C9.79086 7 8 8.79086 8 11C8 13.2091 9.79086 15 12 15C14.2091 15 16 13.2091 16 11C16 8.79086 14.2091 7 12 7Z" fill="#313131"/>
</svg>
