<svg width="32" height="32" viewBox="0 0 32 32" fill="none" xmlns="http://www.w3.org/2000/svg">
<path fill-rule="evenodd" clip-rule="evenodd" d="M21.6222 1.5H10.7111C10.1588 1.5 9.71106 1.94772 9.71106 2.5V13.4111C9.71106 13.9634 10.1588 14.4111 10.7111 14.4111H21.6222C22.1745 14.4111 22.6222 13.9634 22.6222 13.4111V2.5C22.6222 1.94772 22.1745 1.5 21.6222 1.5ZM10.7111 0.5C9.60649 0.5 8.71106 1.39543 8.71106 2.5V13.4111C8.71106 14.5157 9.60649 15.4111 10.7111 15.4111H21.6222C22.7267 15.4111 23.6222 14.5157 23.6222 13.4111V2.5C23.6222 1.39543 22.7267 0.5 21.6222 0.5H10.7111Z" fill="black" fill-opacity="0.8"/>
<path fill-rule="evenodd" clip-rule="evenodd" d="M15.6666 11.7595V7.04837H16.6666V11.7595H15.6666Z" fill="black" fill-opacity="0.8"/>
<path fill-rule="evenodd" clip-rule="evenodd" d="M16.1666 6.08739C16.5808 6.08739 16.9166 5.7516 16.9166 5.33739V5.26961C16.9166 4.8554 16.5808 4.51961 16.1666 4.51961C15.7524 4.51961 15.4166 4.8554 15.4166 5.26961V5.33739C15.4166 5.7516 15.7524 6.08739 16.1666 6.08739Z" fill="black" fill-opacity="0.8"/>
<path d="M14.6416 18.8L16.1666 16.7667L17.6916 18.8H24.3333C25.4379 18.8 26.3333 19.6954 26.3333 20.8V29C26.3333 30.1046 25.4379 31 24.3333 31H8C6.89543 31 6 30.1046 6 29V20.8C6 19.6954 6.89543 18.8 8 18.8H14.6416Z" fill="black" fill-opacity="0.8"/>
<path d="M10.8391 27.6889H11.6471V22.9449H13.4551V22.1929H9.03906V22.9449H10.8391V27.6889Z" fill="white"/>
<path d="M16.1816 22.8649C16.4376 22.8649 16.6536 22.6409 16.6536 22.3849C16.6536 22.1369 16.4376 21.9129 16.1816 21.9129C15.9096 21.9129 15.7016 22.1369 15.7016 22.3849C15.7016 22.6409 15.9096 22.8649 16.1816 22.8649ZM15.7816 27.6889H16.5736V23.5529H15.7816V27.6889Z" fill="white"/>
<path d="M21.4552 23.4569C20.8152 23.4569 20.3032 23.7609 19.9832 24.2649V23.5529H19.1992V29.0649H19.9832V26.9689C20.3032 27.4809 20.8152 27.7849 21.4552 27.7849C22.5432 27.7849 23.3592 26.8889 23.3592 25.6169C23.3592 24.3529 22.5432 23.4569 21.4552 23.4569ZM21.2632 27.0969C20.5192 27.0969 19.9832 26.4809 19.9832 25.6169C19.9832 24.7529 20.5192 24.1449 21.2632 24.1449C22.0232 24.1449 22.5592 24.7529 22.5592 25.6169C22.5592 26.4809 22.0232 27.0969 21.2632 27.0969Z" fill="white"/>
</svg>
