<svg width="32" height="32" viewBox="0 0 32 32" fill="none" xmlns="http://www.w3.org/2000/svg">
<path fill-rule="evenodd" clip-rule="evenodd" d="M23.375 12C23.375 7.85786 20.0171 4.5 15.875 4.5C11.7329 4.5 8.375 7.85786 8.375 12H9.29226C9.1828 12.4824 9.125 12.9845 9.125 13.5V13.5473C8.47804 13.7138 8 14.3011 8 15C8 15.766 8.57417 16.3979 9.3156 16.4888C10.1054 19.9281 13.2047 22.5 15.875 22.5C18.5453 22.5 21.6446 19.9281 22.4344 16.4888C23.1758 16.3979 23.75 15.766 23.75 15C23.75 14.3011 23.272 13.7138 22.625 13.5473V13.5C22.625 12.9845 22.5672 12.4824 22.4577 12H23.375ZM10.3226 12L21.4274 12C21.5563 12.4782 21.625 12.9811 21.625 13.5V14.3225L22.3757 14.5157C22.5916 14.5713 22.75 14.7684 22.75 15C22.75 15.2546 22.5588 15.466 22.3127 15.4962L21.6167 15.5815L21.4598 16.265C21.1157 17.7634 20.2626 19.0885 19.1956 20.0366C18.1185 20.9939 16.9027 21.5 15.875 21.5C14.8473 21.5 13.6315 20.9939 12.5544 20.0366C11.4874 19.0885 10.6343 17.7634 10.2902 16.265L10.1333 15.5815L9.43728 15.4962C9.19116 15.466 9 15.2546 9 15C9 14.7684 9.15839 14.5713 9.37426 14.5157L10.125 14.3225V13.5C10.125 12.9811 10.1937 12.4782 10.3226 12Z" fill="black" fill-opacity="0.8"/>
<rect x="3" y="3" width="26" height="26" stroke="black" stroke-opacity="0.8"/>
<path d="M4.24278 27.143L3.5 29H28.5L27.7572 27.143C26.9979 25.2448 25.1594 24 23.1148 24H8.88516C6.84064 24 5.0021 25.2448 4.24278 27.143Z" fill="black" fill-opacity="0.8"/>
</svg>
