<svg width="32" height="32" viewBox="0 0 32 32" fill="none" xmlns="http://www.w3.org/2000/svg">
<path fill-rule="evenodd" clip-rule="evenodd" d="M5 9.5H27C27.5523 9.5 28 9.94772 28 10.5V16.4111C28 16.9634 27.5523 17.4111 27 17.4111H23V18.4111H27C28.1046 18.4111 29 17.5157 29 16.4111V10.5C29 9.39543 28.1046 8.5 27 8.5H5C3.89543 8.5 3 9.39543 3 10.5V16.4111C3 17.5157 3.89543 18.4111 5 18.4111H19V17.4111H5C4.44772 17.4111 4 16.9634 4 16.4111V10.5C4 9.94772 4.44772 9.5 5 9.5Z" fill="black" fill-opacity="0.8"/>
<path fill-rule="evenodd" clip-rule="evenodd" d="M20.2808 19.9783L22.1521 23.2194L25.1486 21.4893L23.2773 18.2482L25.4514 16.993L18.2456 13.1626L17.9601 21.3181L20.2808 19.9783ZM19.0226 19.55L20.6469 18.6122L22.5181 21.8533L23.7826 21.1233L21.9113 17.8822L23.3889 17.0291L19.189 14.7966L19.0226 19.55Z" fill="black" fill-opacity="0.8"/>
<path fill-rule="evenodd" clip-rule="evenodd" d="M15.8333 3C16.1095 3 16.3333 3.22386 16.3333 3.5V4C16.3333 4.27614 16.1095 4.5 15.8333 4.5C15.5572 4.5 15.3333 4.27614 15.3333 4V3.5C15.3333 3.22386 15.5572 3 15.8333 3Z" fill="black" fill-opacity="0.8"/>
<path fill-rule="evenodd" clip-rule="evenodd" d="M14 5C14 4.72386 14.2239 4.5 14.5 4.5H15C15.2761 4.5 15.5 4.72386 15.5 5C15.5 5.27614 15.2761 5.5 15 5.5H14.5C14.2239 5.5 14 5.27614 14 5Z" fill="black" fill-opacity="0.8"/>
<path fill-rule="evenodd" clip-rule="evenodd" d="M15.8333 7C15.5572 7 15.3333 6.77614 15.3333 6.5V6C15.3333 5.72386 15.5572 5.5 15.8333 5.5C16.1095 5.5 16.3333 5.72386 16.3333 6V6.5C16.3333 6.77614 16.1095 7 15.8333 7Z" fill="black" fill-opacity="0.8"/>
<path fill-rule="evenodd" clip-rule="evenodd" d="M17.6667 5C17.6667 5.27614 17.4428 5.5 17.1667 5.5H16.6667C16.3905 5.5 16.1667 5.27614 16.1667 5C16.1667 4.72386 16.3905 4.5 16.6667 4.5H17.1667C17.4428 4.5 17.6667 4.72386 17.6667 5Z" fill="black" fill-opacity="0.8"/>
<path fill-rule="evenodd" clip-rule="evenodd" d="M12.3333 19.5C12.6095 19.5 12.8333 19.7239 12.8333 20V20.5C12.8333 20.7761 12.6095 21 12.3333 21C12.0572 21 11.8333 20.7761 11.8333 20.5V20C11.8333 19.7239 12.0572 19.5 12.3333 19.5Z" fill="black" fill-opacity="0.8"/>
<path fill-rule="evenodd" clip-rule="evenodd" d="M10.5 21.5C10.5 21.2239 10.7239 21 11 21H11.5C11.7761 21 12 21.2239 12 21.5C12 21.7761 11.7761 22 11.5 22H11C10.7239 22 10.5 21.7761 10.5 21.5Z" fill="black" fill-opacity="0.8"/>
<path fill-rule="evenodd" clip-rule="evenodd" d="M12.3333 23.5C12.0572 23.5 11.8333 23.2761 11.8333 23V22.5C11.8333 22.2239 12.0572 22 12.3333 22C12.6095 22 12.8333 22.2239 12.8333 22.5V23C12.8333 23.2761 12.6095 23.5 12.3333 23.5Z" fill="black" fill-opacity="0.8"/>
<path fill-rule="evenodd" clip-rule="evenodd" d="M14.1667 21.5C14.1667 21.7761 13.9428 22 13.6667 22H13.1667C12.8905 22 12.6667 21.7761 12.6667 21.5C12.6667 21.2239 12.8905 21 13.1667 21H13.6667C13.9428 21 14.1667 21.2239 14.1667 21.5Z" fill="black" fill-opacity="0.8"/>
<path fill-rule="evenodd" clip-rule="evenodd" d="M25.8333 1.5C26.1095 1.5 26.3333 1.72386 26.3333 2V3C26.3333 3.27614 26.1095 3.5 25.8333 3.5C25.5572 3.5 25.3333 3.27614 25.3333 3V2C25.3333 1.72386 25.5572 1.5 25.8333 1.5Z" fill="black" fill-opacity="0.8"/>
<path fill-rule="evenodd" clip-rule="evenodd" d="M23.5 4C23.5 3.72386 23.7239 3.5 24 3.5H25C25.2761 3.5 25.5 3.72386 25.5 4C25.5 4.27614 25.2761 4.5 25 4.5H24C23.7239 4.5 23.5 4.27614 23.5 4Z" fill="black" fill-opacity="0.8"/>
<path fill-rule="evenodd" clip-rule="evenodd" d="M25.8333 6.5C25.5572 6.5 25.3333 6.27614 25.3333 6V5C25.3333 4.72386 25.5572 4.5 25.8333 4.5C26.1095 4.5 26.3333 4.72386 26.3333 5V6C26.3333 6.27614 26.1095 6.5 25.8333 6.5Z" fill="black" fill-opacity="0.8"/>
<path fill-rule="evenodd" clip-rule="evenodd" d="M28.1667 4C28.1667 4.27614 27.9428 4.5 27.6667 4.5L26.6667 4.5C26.3905 4.5 26.1667 4.27614 26.1667 4C26.1667 3.72386 26.3905 3.5 26.6667 3.5L27.6667 3.5C27.9428 3.5 28.1667 3.72386 28.1667 4Z" fill="black" fill-opacity="0.8"/>
<path fill-rule="evenodd" clip-rule="evenodd" d="M7 11.5C6.72386 11.5 6.5 11.7239 6.5 12V15C6.5 15.2761 6.72386 15.5 7 15.5H10.5V16.5H7C6.17157 16.5 5.5 15.8284 5.5 15V12C5.5 11.1716 6.17157 10.5 7 10.5H18V11.5H7ZM25 11.5H19.5V10.5H25C25.8284 10.5 26.5 11.1716 26.5 12V16H25.5V12C25.5 11.7239 25.2761 11.5 25 11.5Z" fill="black" fill-opacity="0.8"/>
<path fill-rule="evenodd" clip-rule="evenodd" d="M12 16C12 15.7239 12.2239 15.5 12.5 15.5H13.5C13.7761 15.5 14 15.7239 14 16C14 16.2761 13.7761 16.5 13.5 16.5H12.5C12.2239 16.5 12 16.2761 12 16Z" fill="black" fill-opacity="0.8"/>
</svg>
