<svg width="32" height="32" viewBox="0 0 32 32" fill="none" xmlns="http://www.w3.org/2000/svg">
<path d="M25.3199 17.9472C28.2444 17.9472 29.5122 17.8201 30.4377 15.4755C31.8702 11.8468 30.447 7.45003 27.5133 8.06038C18.74 8.55472 9.23558 8.26635 5.58003 8.06038C4.11781 7.8544 1.19337 8.06038 1.19337 10.5321C1.19337 13.6217 -0.268908 18.5651 4.84886 17.9472C7.25494 17.6566 12.8911 17.9472 16.5466 17.9472" stroke="black"/>
<path d="M7.56572 11.4137C7.56572 12.3481 7.04602 13.2357 7.0281 14.1832C7.0233 14.4369 6.96475 14.7513 7.03237 14.9988C7.0415 15.0322 7.71519 14.3658 7.8132 14.2596C8.05 14.0028 8.30185 13.7695 8.52576 13.5065C8.64531 13.366 8.72594 13.2254 8.94817 13.2254C9.44077 13.2254 9.4858 13.5101 9.4858 13.8362C9.4858 14.1085 9.78091 13.8272 9.94661 13.7598C10.2342 13.6428 10.567 13.5756 10.8682 13.4891C11.0511 13.4366 10.7059 14.8932 11.1925 14.6344C11.4144 14.5164 12.6302 13.6061 12.8822 13.975C13.2297 14.4838 13.4625 14.5637 14.2177 14.5337C14.6654 14.516 15.2639 14.3914 15.6386 14.1763C15.8322 14.0651 15.8083 14.1624 16.014 14.1624C16.1246 14.1624 16.4531 14.1099 16.4749 14.2249C16.5438 14.5893 16.5634 13.4842 16.7095 13.1351C16.9633 12.5289 17.3543 11.9922 17.6525 11.4068C17.7231 11.2682 17.8025 11.0938 17.9597 11.0008C18.0018 10.9759 18.0808 11.5764 18.0835 11.6324C18.109 12.162 18.1069 12.6937 18.1003 13.2254M19.7049 13.5724C20.075 13.4407 20.5436 14.2267 20.699 14.0687C20.8518 13.9134 21.4319 13.8771 21.6463 13.8153C21.8287 13.7628 22.0819 13.7251 22.2778 13.7251C23.1852 13.7251 24.0926 13.7251 25 13.7251" stroke="black" stroke-linecap="round"/>
<path d="M18 24.6842V16L25.5 20.7368L23 22.3158L28 28.6316L23.8333 31L20.5 23.8947L18 24.6842Z" stroke="black"/>
</svg>
