<svg width="33" height="32" viewBox="0 0 33 32" fill="none" xmlns="http://www.w3.org/2000/svg">
<path fill-rule="evenodd" clip-rule="evenodd" d="M20.2071 22.5L24.5 18.2071V9L8.5 9L8.5 22.5L20.2071 22.5ZM9.5 21.5L9.5 13L23.5 13L23.5 17.5H19.5V21.5L9.5 21.5ZM20.5 20.7929V18.5H22.7929L20.5 20.7929Z" fill="#373737"/>
<path d="M10.5 14.5H12.5V16.5H10.5V14.5Z" fill="#373737"/>
<path d="M10.5 17.5H12.5V19.5H10.5V17.5Z" fill="#373737"/>
<path d="M13.5 14.5H15.5V16.5H13.5V14.5Z" fill="#373737"/>
<path d="M13.5 17.5H15.5V19.5H13.5V17.5Z" fill="#373737"/>
<path d="M16.5 14.5H18.5V16.5H16.5V14.5Z" fill="#373737"/>
<path d="M16.5 17.5H18.5V19.5H16.5V17.5Z" fill="#373737"/>
<path d="M19.5 14.5H21.5V16.5H19.5V14.5Z" fill="#373737"/>
</svg>
