<svg width="32" height="32" viewBox="0 0 32 32" fill="none" xmlns="http://www.w3.org/2000/svg">
<path fill-rule="evenodd" clip-rule="evenodd" d="M26 9.80789H19.0882V8.80789H27V22.1608H19.0882V21.1608H26V9.80789Z" fill="black" fill-opacity="0.8"/>
<path fill-rule="evenodd" clip-rule="evenodd" d="M6 9.80789H10.4412V8.80789H5V22.1608H10.4412V21.1608H6V9.80789Z" fill="black" fill-opacity="0.8"/>
<path fill-rule="evenodd" clip-rule="evenodd" d="M16.7081 10.2949H15.6188V20.7732H16.7081V21.7732H15.2364V21.1499H15.0011V21.7732H13.5294V20.7732H14.6188V10.295H13.5294V9.29499H15.0011V9.79499H15.2364V9.29491H16.7081V10.2949Z" fill="black" fill-opacity="0.8"/>
<path d="M11.8732 18.0304C11.7446 18.1519 11.5108 18.2403 11.2536 18.2403C10.9146 18.2403 10.634 17.9531 10.634 17.5555V14.2748H12.0603V13.347H10.634V11.7785H9.50005V13.347H8.58819V14.2748H9.50005V17.6328C9.50005 18.5496 10.1547 19.1902 11.09 19.1902C11.5225 19.1902 11.9667 19.0356 12.2941 18.7815L11.8732 18.0304Z" fill="black" fill-opacity="0.8"/>
</svg>
