<svg width="32" height="33" viewBox="0 0 32 33" fill="none" xmlns="http://www.w3.org/2000/svg">
<path fill-rule="evenodd" clip-rule="evenodd" d="M2 14H29V15H2V14Z" fill="black" fill-opacity="0.8"/>
<path fill-rule="evenodd" clip-rule="evenodd" d="M2 8.5H11V10.5H2V8.5Z" fill="black" fill-opacity="0.8"/>
<path d="M2.07386 25.5V19.6818H3.12784V24.6165H5.69034V25.5H2.07386Z" fill="black" fill-opacity="0.8"/>
<path d="M7.61102 25.5H6.48602L8.53432 19.6818H9.83545L11.8866 25.5H10.7616L9.20761 20.875H9.16216L7.61102 25.5ZM7.64795 23.2188H10.7161V24.0653H7.64795V23.2188Z" fill="black" fill-opacity="0.8"/>
<path d="M12.6929 25.5V19.6818H14.9202C15.3407 19.6818 15.6901 19.7481 15.9685 19.8807C16.2488 20.0114 16.4581 20.1903 16.5963 20.4176C16.7365 20.6449 16.8066 20.9025 16.8066 21.1903C16.8066 21.4271 16.7611 21.6297 16.6702 21.7983C16.5793 21.965 16.4571 22.1004 16.3037 22.2045C16.1503 22.3087 15.9789 22.3835 15.7895 22.429V22.4858C15.996 22.4972 16.1939 22.5606 16.3833 22.6761C16.5746 22.7898 16.7308 22.9508 16.852 23.1591C16.9732 23.3674 17.0338 23.6193 17.0338 23.9148C17.0338 24.2159 16.9609 24.4867 16.8151 24.7273C16.6693 24.9659 16.4496 25.1544 16.156 25.2926C15.8624 25.4309 15.4931 25.5 15.048 25.5H12.6929ZM13.7469 24.6193H14.8804C15.263 24.6193 15.5386 24.5464 15.7071 24.4006C15.8776 24.2528 15.9628 24.0634 15.9628 23.8324C15.9628 23.66 15.9202 23.5047 15.835 23.3665C15.7497 23.2263 15.6285 23.1165 15.4713 23.0369C15.3141 22.9555 15.1266 22.9148 14.9088 22.9148H13.7469V24.6193ZM13.7469 22.1562H14.7895C14.9713 22.1562 15.1352 22.1231 15.281 22.0568C15.4268 21.9886 15.5414 21.893 15.6247 21.7699C15.71 21.6449 15.7526 21.4972 15.7526 21.3267C15.7526 21.1013 15.673 20.9157 15.5139 20.7699C15.3568 20.6241 15.1229 20.5511 14.8122 20.5511H13.7469V22.1562Z" fill="black" fill-opacity="0.8"/>
<path d="M17.9907 25.5V19.6818H21.7748V20.5653H19.0447V22.1449H21.5788V23.0284H19.0447V24.6165H21.7976V25.5H17.9907Z" fill="black" fill-opacity="0.8"/>
<path d="M22.8901 25.5V19.6818H23.9441V24.6165H26.5066V25.5H22.8901Z" fill="black" fill-opacity="0.8"/>
</svg>
