<svg width="33" height="32" viewBox="0 0 33 32" fill="none" xmlns="http://www.w3.org/2000/svg">
<path fill-rule="evenodd" clip-rule="evenodd" d="M7.5 22C7.5 23.6569 8.84315 25 10.5 25C12.1569 25 13.5 23.6569 13.5 22C13.5 20.3431 12.1569 19 10.5 19C8.84315 19 7.5 20.3431 7.5 22ZM10.5 18C8.29086 18 6.5 19.7909 6.5 22C6.5 24.2091 8.29086 26 10.5 26C12.7091 26 14.5 24.2091 14.5 22C14.5 19.7909 12.7091 18 10.5 18Z" fill="black" fill-opacity="0.8"/>
<path d="M8.5 22C8.5 20.8954 9.39543 20 10.5 20C11.6046 20 12.5 20.8954 12.5 22C12.5 23.1046 11.6046 24 10.5 24C9.39543 24 8.5 23.1046 8.5 22Z" fill="black" fill-opacity="0.8"/>
<path fill-rule="evenodd" clip-rule="evenodd" d="M7.5 12C7.5 13.6569 8.84315 15 10.5 15C12.1569 15 13.5 13.6569 13.5 12C13.5 10.3431 12.1569 9 10.5 9C8.84315 9 7.5 10.3431 7.5 12ZM10.5 8C8.29086 8 6.5 9.79086 6.5 12C6.5 14.2091 8.29086 16 10.5 16C12.7091 16 14.5 14.2091 14.5 12C14.5 9.79086 12.7091 8 10.5 8Z" fill="black" fill-opacity="0.8"/>
<path fill-rule="evenodd" clip-rule="evenodd" d="M26 12.5H17.5V11.5H26V12.5Z" fill="black" fill-opacity="0.8"/>
<path fill-rule="evenodd" clip-rule="evenodd" d="M26 22.5H17.5V21.5H26V22.5Z" fill="black" fill-opacity="0.8"/>
</svg>
