<svg width="32" height="32" viewBox="0 0 32 32" fill="none" xmlns="http://www.w3.org/2000/svg">
<path d="M11 14.5L21 14.5V13.5L11 13.5V14.5Z" fill="black" fill-opacity="0.8"/>
<path d="M11 11.5L21 11.5V10.5L11 10.5V11.5Z" fill="black" fill-opacity="0.8"/>
<path d="M15.0904 17.191V19.151H12.6894V17.191H11.8144V22H12.6894V19.949H15.0904V22H15.9654V17.191H15.0904Z" fill="black" fill-opacity="0.8"/>
<path d="M16.7798 22H20.3148V21.202H18.1378L19.1458 20.39C19.9718 19.753 20.2658 19.242 20.2658 18.605C20.2658 17.716 19.5378 17.107 18.5858 17.107C17.8088 17.107 17.2278 17.45 16.7728 18.045L17.3398 18.57C17.6898 18.15 18.0538 17.891 18.5578 17.891C18.9918 17.891 19.3768 18.171 19.3768 18.626C19.3768 19.018 19.1598 19.382 18.5508 19.872L16.7798 21.286V22Z" fill="black" fill-opacity="0.8"/>
<path fill-rule="evenodd" clip-rule="evenodd" d="M6.5 4.5H25.5V26.5H6.5V4.5ZM7.5 5.5V25.5H24.5V5.5H7.5Z" fill="#313131"/>
</svg>
