<svg width="32" height="32" viewBox="0 0 32 32" fill="none" xmlns="http://www.w3.org/2000/svg">
<path d="M8.50004 5L6.50004 8L10.5 8L8.50004 5Z" fill="black" fill-opacity="0.8"/>
<path d="M23.5 27L25.5 24H21.5L23.5 27Z" fill="black" fill-opacity="0.8"/>
<path d="M23.5 5L21.5 8L25.5 8L23.5 5Z" fill="black" fill-opacity="0.8"/>
<path d="M8.50004 27L10.5 24H6.50004L8.50004 27Z" fill="black" fill-opacity="0.8"/>
<path d="M5.65904 19.108C7.24304 19.108 8.35904 17.785 8.35904 15.904C8.35904 14.032 7.24304 12.709 5.65904 12.709C4.06604 12.709 2.94104 14.032 2.94104 15.904C2.94104 17.785 4.06604 19.108 5.65904 19.108ZM5.65904 18.082C4.74104 18.082 4.09304 17.182 4.09304 15.904C4.09304 14.626 4.74104 13.735 5.65904 13.735C6.56804 13.735 7.21604 14.626 7.21604 15.904C7.21604 17.182 6.56804 18.082 5.65904 18.082Z" fill="#313131"/>
<path d="M11.5646 12.709C10.2326 12.709 9.26059 13.591 9.26059 14.815C9.26059 16.048 10.2056 16.768 11.3396 16.768C11.9696 16.768 12.5636 16.507 12.9416 16.066C12.8696 17.281 12.2486 18.118 11.3756 18.118C10.8266 18.118 10.4486 17.893 10.0706 17.56L9.52159 18.415C10.0166 18.838 10.6016 19.108 11.3666 19.108C12.9776 19.108 14.1026 17.713 14.1026 15.805C14.1026 14.023 13.3196 12.709 11.5646 12.709ZM11.6366 15.85C10.9616 15.85 10.4036 15.445 10.4036 14.77C10.4036 14.203 10.8626 13.663 11.6186 13.663C12.3656 13.663 12.7526 14.176 12.8876 14.995C12.7076 15.517 12.2306 15.85 11.6366 15.85Z" fill="#313131"/>
<path d="M16.3013 15.697C16.6793 15.697 16.9943 15.373 16.9943 14.977C16.9943 14.608 16.6793 14.284 16.3013 14.284C15.8873 14.284 15.5813 14.608 15.5813 14.977C15.5813 15.373 15.8873 15.697 16.3013 15.697ZM16.3013 19.108C16.6793 19.108 16.9943 18.784 16.9943 18.388C16.9943 18.019 16.6793 17.695 16.3013 17.695C15.8873 17.695 15.5813 18.019 15.5813 18.388C15.5813 18.784 15.8873 19.108 16.3013 19.108Z" fill="#313131"/>
<path d="M21.4574 19H22.5734V17.659H23.4284V16.696H22.5734V12.817H21.2324L18.2984 16.786L18.4064 17.659H21.4574V19ZM19.4954 16.696L21.4574 14.041V16.696H19.4954Z" fill="#313131"/>
<path d="M24.1902 19H28.7352V17.974H25.9362L27.2322 16.93C28.2942 16.111 28.6722 15.454 28.6722 14.635C28.6722 13.492 27.7362 12.709 26.5122 12.709C25.5132 12.709 24.7662 13.15 24.1812 13.915L24.9102 14.59C25.3602 14.05 25.8282 13.717 26.4762 13.717C27.0342 13.717 27.5292 14.077 27.5292 14.662C27.5292 15.166 27.2502 15.634 26.4672 16.264L24.1902 18.082V19Z" fill="#313131"/>
</svg>
