<svg width="32" height="32" viewBox="0 0 32 32" fill="none" xmlns="http://www.w3.org/2000/svg">
<path fill-rule="evenodd" clip-rule="evenodd" d="M1.5 26L1.5 26.5L2 26.5L30 26.5L30.5 26.5L30.5 26L30.5 6.00001L30.5 5.50001L30 5.50001L9.56757 5.49999L2.00001 5.5L1.50001 5.5L1.50001 6L1.5 26ZM29.5 25.5L2.5 25.5L2.5 15L29.5 15L29.5 25.5Z" fill="black" fill-opacity="0.8"/>
<path fill-rule="evenodd" clip-rule="evenodd" d="M6 22.5L16 22.5L16 21.5L6 21.5L6 22.5ZM6 19.5L16 19.5L16 18.5L6 18.5L6 19.5Z" fill="black" fill-opacity="0.8"/>
<path d="M8.048 13H9.04V8.416H10.8V7.504H6.288V8.416H8.048V13ZM12.1179 8.24C12.4219 8.24 12.6699 7.976 12.6699 7.68C12.6699 7.384 12.4219 7.128 12.1179 7.128C11.8059 7.128 11.5579 7.384 11.5579 7.68C11.5579 7.976 11.8059 8.24 12.1179 8.24ZM11.6219 13H12.5979V8.864H11.6219V13ZM15.7406 12.112C15.6526 12.2 15.5006 12.264 15.3326 12.264C15.1006 12.264 14.9246 12.064 14.9246 11.784V9.672H15.8606V8.864H14.9246V7.728H13.9726V8.864H13.3726V9.672H13.9726V11.904C13.9726 12.6 14.4526 13.096 15.1406 13.096C15.4526 13.096 15.7886 12.968 16.0206 12.768L15.7406 12.112ZM16.7782 13H17.7542V7.408H16.7782V13ZM20.7609 12.232C20.1689 12.232 19.7369 11.832 19.6169 11.264H22.7369C22.7369 9.736 21.9929 8.768 20.7129 8.768C19.5369 8.768 18.6089 9.68 18.6089 10.92C18.6089 12.192 19.5849 13.096 20.7689 13.096C21.3689 13.096 22.0889 12.84 22.4489 12.456L21.8329 11.816C21.6009 12.056 21.1449 12.232 20.7609 12.232ZM20.7529 9.632C21.3369 9.632 21.6889 10 21.8009 10.52H19.6249C19.7689 9.976 20.2089 9.632 20.7529 9.632Z" fill="white"/>
</svg>
