<svg width="32" height="32" viewBox="0 0 32 32" fill="none" xmlns="http://www.w3.org/2000/svg">
<path d="M4.5 18.5C4.5 17.3954 5.39543 16.5 6.5 16.5H25.5C26.6046 16.5 27.5 17.3954 27.5 18.5V23.5C27.5 24.6046 26.6046 25.5 25.5 25.5H6.5C5.39543 25.5 4.5 24.6046 4.5 23.5V18.5Z" fill="#313131"/>
<path d="M16 14.5L14.5 16.5H17.5L16 14.5Z" fill="#313131"/>
<path fill-rule="evenodd" clip-rule="evenodd" d="M19.5 3.5H12.5C11.9477 3.5 11.5 3.94772 11.5 4.5V11.5C11.5 12.0523 11.9477 12.5 12.5 12.5H19.5C20.0523 12.5 20.5 12.0523 20.5 11.5V4.5C20.5 3.94772 20.0523 3.5 19.5 3.5ZM12.5 2.5C11.3954 2.5 10.5 3.39543 10.5 4.5V11.5C10.5 12.6046 11.3954 13.5 12.5 13.5H19.5C20.6046 13.5 21.5 12.6046 21.5 11.5V4.5C21.5 3.39543 20.6046 2.5 19.5 2.5H12.5Z" fill="black" fill-opacity="0.8"/>
<path fill-rule="evenodd" clip-rule="evenodd" d="M15.5 10.5685V7.56847H16.5V10.5685H15.5Z" fill="black" fill-opacity="0.8"/>
<path fill-rule="evenodd" clip-rule="evenodd" d="M16 6.81856C16.4142 6.81856 16.75 6.48277 16.75 6.06856V6.01856C16.75 5.60434 16.4142 5.26856 16 5.26856C15.5858 5.26856 15.25 5.60434 15.25 6.01856V6.06856C15.25 6.48277 15.5858 6.81856 16 6.81856Z" fill="black" fill-opacity="0.8"/>
<path d="M6.737 22H6.971V19.939H6.737V22Z" fill="white"/>
<path d="M8.33998 20.413C8.12098 20.413 7.91998 20.533 7.82998 20.698V20.449H7.60498V22H7.82998V21.013C7.82998 20.797 8.04898 20.614 8.30998 20.614C8.53798 20.614 8.69698 20.791 8.69698 21.043V22H8.92198V21.013C8.92198 20.662 8.68198 20.413 8.33998 20.413Z" fill="white"/>
<path d="M9.89337 20.236C9.89337 20.122 9.97137 20.041 10.0614 20.041C10.1304 20.041 10.1904 20.068 10.2234 20.104L10.3344 19.939C10.2534 19.876 10.1514 19.84 10.0464 19.84C9.82438 19.84 9.66838 20.005 9.66838 20.236V20.449H9.42537V20.65H9.66838V22H9.89337V20.65H10.2744V20.449H9.89337V20.236Z" fill="white"/>
<path d="M11.4791 22.036C11.9141 22.036 12.2801 21.664 12.2801 21.223C12.2801 20.782 11.9141 20.413 11.4791 20.413C11.0441 20.413 10.6751 20.782 10.6751 21.223C10.6751 21.664 11.0441 22.036 11.4791 22.036ZM11.4791 21.835C11.1701 21.835 10.9121 21.556 10.9121 21.223C10.9121 20.893 11.1701 20.614 11.4791 20.614C11.7851 20.614 12.0431 20.893 12.0431 21.223C12.0431 21.556 11.7851 21.835 11.4791 21.835Z" fill="white"/>
<path d="M13.0627 20.752V20.449H12.8377V22H13.0627V21.133C13.0627 20.83 13.3117 20.614 13.6627 20.614V20.413C13.3777 20.413 13.1557 20.545 13.0627 20.752Z" fill="white"/>
<path d="M15.8159 20.413C15.5819 20.413 15.3779 20.542 15.3149 20.743C15.2309 20.542 15.0479 20.413 14.8139 20.413C14.6099 20.413 14.4419 20.515 14.3639 20.677V20.449H14.1389V22H14.3639V21.013C14.3639 20.779 14.5379 20.614 14.7839 20.614C14.9939 20.614 15.1409 20.791 15.1409 21.043V22H15.3659V21.013C15.3659 20.779 15.5399 20.614 15.7859 20.614C15.9959 20.614 16.1429 20.791 16.1429 21.043V22H16.3679V21.013C16.3679 20.662 16.1399 20.413 15.8159 20.413Z" fill="white"/>
<path d="M17.6175 20.413C17.4675 20.413 17.2815 20.452 17.0595 20.563L17.1495 20.746C17.2905 20.674 17.4465 20.605 17.6025 20.605C17.9385 20.605 18.0225 20.845 18.0225 21.055V21.112C17.8635 21.061 17.6865 21.025 17.5185 21.025C17.1855 21.025 16.9095 21.232 16.9095 21.541C16.9095 21.847 17.1495 22.036 17.4765 22.036C17.6805 22.036 17.9115 21.94 18.0225 21.757V22H18.2475V21.055C18.2475 20.68 18.0405 20.413 17.6175 20.413ZM17.5155 21.838C17.2965 21.838 17.1285 21.724 17.1285 21.532C17.1285 21.346 17.3235 21.214 17.5545 21.214C17.7225 21.214 17.8815 21.238 18.0225 21.277V21.514C17.9625 21.733 17.7195 21.838 17.5155 21.838Z" fill="white"/>
<path d="M19.5533 21.772C19.5203 21.808 19.4603 21.835 19.3913 21.835C19.3013 21.835 19.2233 21.754 19.2233 21.64V20.65H19.6043V20.449H19.2233V20.023H18.9983V20.449H18.7553V20.65H18.9983V21.64C18.9983 21.871 19.1543 22.036 19.3763 22.036C19.4813 22.036 19.5833 22 19.6643 21.937L19.5533 21.772Z" fill="white"/>
<path d="M20.2586 20.167C20.3396 20.167 20.4056 20.098 20.4056 20.017C20.4056 19.939 20.3396 19.87 20.2586 19.87C20.1746 19.87 20.1086 19.939 20.1086 20.017C20.1086 20.098 20.1746 20.167 20.2586 20.167ZM20.1446 22H20.3696V20.449H20.1446V22Z" fill="white"/>
<path d="M21.7064 22.036C22.1414 22.036 22.5074 21.664 22.5074 21.223C22.5074 20.782 22.1414 20.413 21.7064 20.413C21.2714 20.413 20.9024 20.782 20.9024 21.223C20.9024 21.664 21.2714 22.036 21.7064 22.036ZM21.7064 21.835C21.3974 21.835 21.1394 21.556 21.1394 21.223C21.1394 20.893 21.3974 20.614 21.7064 20.614C22.0124 20.614 22.2704 20.893 22.2704 21.223C22.2704 21.556 22.0124 21.835 21.7064 21.835Z" fill="white"/>
<path d="M23.782 20.413C23.563 20.413 23.362 20.533 23.272 20.698V20.449H23.047V22H23.272V21.013C23.272 20.797 23.491 20.614 23.752 20.614C23.98 20.614 24.139 20.791 24.139 21.043V22H24.364V21.013C24.364 20.662 24.124 20.413 23.782 20.413Z" fill="white"/>
</svg>
